<svg xmlns="http://www.w3.org/2000/svg" xmlns:xlink="http://www.w3.org/1999/xlink" version="1.1" style="" xml:space="preserve" width="58.752" height="58.752"><rect id="backgroundrect" width="100%" height="100%" x="0" y="0" fill="none" stroke="none"/>
















<g class="currentLayer" style=""><title>Layer 1</title><g id="svg_1" class="" stroke="#ffffff" stroke-opacity="1" fill="#dadada" fill-opacity="1">
	<path d="M52.524,23.925L12.507,0.824c-1.907-1.1-4.376-1.097-6.276,0C4.293,1.94,3.088,4.025,3.088,6.264v46.205   c0,2.24,1.204,4.325,3.131,5.435c0.953,0.555,2.042,0.848,3.149,0.848c1.104,0,2.192-0.292,3.141-0.843l40.017-23.103   c1.936-1.119,3.138-3.203,3.138-5.439C55.663,27.134,54.462,25.05,52.524,23.925z M49.524,29.612L9.504,52.716   c-0.082,0.047-0.18,0.052-0.279-0.005c-0.084-0.049-0.137-0.142-0.137-0.242V6.263c0-0.1,0.052-0.192,0.14-0.243   c0.042-0.025,0.09-0.038,0.139-0.038c0.051,0,0.099,0.013,0.142,0.038l40.01,23.098c0.089,0.052,0.145,0.147,0.145,0.249   C49.663,29.47,49.611,29.561,49.524,29.612z" id="svg_2" stroke="#ffffff" stroke-opacity="1" fill="#dadada" fill-opacity="1"/>
</g><g id="svg_3">
</g><g id="svg_4">
</g><g id="svg_5">
</g><g id="svg_6">
</g><g id="svg_7">
</g><g id="svg_8">
</g><g id="svg_9">
</g><g id="svg_10">
</g><g id="svg_11">
</g><g id="svg_12">
</g><g id="svg_13">
</g><g id="svg_14">
</g><g id="svg_15">
</g><g id="svg_16">
</g><g id="svg_17">
</g></g></svg>